<?xml version="1.0" encoding="utf-8"?>
<!-- Svg Vector Icons : http://www.sfont.cn -->
<!DOCTYPE svg PUBLIC "-//W3C//DTD SVG 1.1//EN" "http://www.w3.org/Graphics/SVG/1.1/DTD/svg11.dtd">
<svg version="1.1" xmlns="http://www.w3.org/2000/svg" xmlns:xlink="http://www.w3.org/1999/xlink" x="0px" y="0px" viewBox="0 0 1000 1000" enable-background="new 0 0 1000 1000" xml:space="preserve">
<metadata> Svg Vector Icons : http://www.sfont.cn </metadata>
<g><g transform="translate(0.000000,512.000000) scale(0.100000,-0.100000)"><path d="M7728.4,4111.2c-725.1-499.4-1335.5-922.2-1354.6-941.4c-21-19.1-51.7-59.3-70.8-91.8c-28.7-51.7-30.6-369.3-40.2-3771.1l-9.6-3713.8l-1287.7,993c-782.6,602.7-1297.2,987.3-1310.6,977.7c-13.4-7.6-564.4-445.8-1224.5-975.8s-1215-970-1230.3-975.8c-23-7.6-26.8,457.3-26.8,3614.3v3625.7l44,38.3c40.2,36.4,2389.7,1744.9,2437.6,1771.7c17.2,11.5,1306.8-1163.3,1823.4-1662.7l88-84.2l103.3,133.9c57.4,74.6,105.2,143.5,105.2,153.1c0,11.5-426.7,419-947.1,908.8l-947.1,887.8l-212.4,1.9H3454l-1312.5-987.3L829,3024.4L832.8-720l5.7-3744.3l57.4-93.8c67-107.2,191.3-191.3,306.1-208.6l76.5-11.5l1192,949C3125-3308.7,3666.4-2882,3672.2-2882c5.7,0,570.2-426.7,1257-949l1247.5-949l76.5,11.5c114.8,19.1,239.2,105.2,306.1,210.5l57.4,93.8l5.7,3694.6l5.7,3694.6l1033.2,688.8c570.2,378.8,1060,704.1,1090.6,723.2l55.5,36.4V835.6v-3535.8L7898.7-3389l-906.9-688.8l-1.9-208.5V-4493l63.1,45.9c32.5,26.8,484.1,359.7,998.7,740.4c516.6,382.7,968.1,729,1006.4,769.1c42.1,44,78.5,109.1,91.9,158.8c15.3,61.2,21,1148,21,3899.3c0,3421-3.8,3819-30.6,3857.2c-15.3,23-44,42.1-61.2,42.1C9062,5018.1,8453.5,4610.6,7728.4,4111.2z"/></g></g>
</svg>